<?xml version="1.0" encoding="iso-8859-1"?>
<!-- Generator: Adobe Illustrator 19.0.0, SVG Export Plug-In . SVG Version: 6.00 Build 0)  -->
<svg version="1.1" id="Capa_1" xmlns="http://www.w3.org/2000/svg" xmlns:xlink="http://www.w3.org/1999/xlink" x="0px" y="0px"
	 viewBox="0 0 490 490" style="enable-background:new 0 0 490 490;" xml:space="preserve">
<path d="M342.194,99.415v-61.24C342.194,17.125,326.088,0,306.296,0H183.704c-19.792,0-35.899,17.125-35.899,38.175v61.24H0V490h490
	V99.415H342.194z M168.656,38.175c0-9.551,6.75-17.324,15.048-17.324h122.592c8.298,0,15.047,7.773,15.047,17.324v61.24H168.656
	V38.175z M469.149,120.266v148.218h-70.886V218.02h-98.061v50.463H189.798V218.02h-98.06v50.463H20.851V120.266H469.149z
	 M377.412,238.871v80.075h-56.358v-80.075H377.412z M168.947,238.871v80.075h-56.358v-80.075H168.947z M20.851,469.149V289.334
	h70.886v50.463h98.06v-50.463h110.404v50.463h98.061v-50.463h70.886v179.814H20.851z"/>
<g>
</g>
<g>
</g>
<g>
</g>
<g>
</g>
<g>
</g>
<g>
</g>
<g>
</g>
<g>
</g>
<g>
</g>
<g>
</g>
<g>
</g>
<g>
</g>
<g>
</g>
<g>
</g>
<g>
</g>
</svg>
