<?xml version="1.0" encoding="iso-8859-1"?>
<!-- Generator: Adobe Illustrator 19.0.0, SVG Export Plug-In . SVG Version: 6.00 Build 0)  -->
<svg version="1.1" id="Capa_1" xmlns="http://www.w3.org/2000/svg" xmlns:xlink="http://www.w3.org/1999/xlink" x="0px" y="0px"
	 viewBox="0 0 470 470" style="enable-background:new 0 0 470 470;" xml:space="preserve">
<g>
	<path d="M432.5,70h-100V22.5C332.5,10.094,322.407,0,310,0H160c-12.407,0-22.5,10.094-22.5,22.5V70h-100
		C16.822,70,0,86.822,0,107.5v112.802c0,3.121,1.933,5.916,4.853,7.018c2.188,0.825,4.381,1.636,6.576,2.438V432.5
		c0,20.678,16.822,37.5,37.5,37.5h375c20.678,0,37.5-16.822,37.5-37.5V228.686c1.238-0.458,2.484-0.9,3.718-1.366
		c2.92-1.102,4.853-3.896,4.853-7.018V107.5C470,86.822,453.178,70,432.5,70z M152.5,22.5c0-4.136,3.364-7.5,7.5-7.5h150
		c4.136,0,7.5,3.364,7.5,7.5V70h-15V37.5c0-4.143-3.358-7.5-7.5-7.5H175c-4.142,0-7.5,3.357-7.5,7.5V70h-15V22.5z M182.5,70V45h105
		v25H182.5z M26.429,432.5v-42.112c34,3.511,61.102,30.612,64.613,64.612H48.929C36.522,455,26.429,444.906,26.429,432.5z
		 M423.929,455h-42.113c3.51-34,30.613-61.102,64.613-64.612V432.5C446.429,444.906,436.336,455,423.929,455z M446.429,375.325
		c-42.276,3.606-76.069,37.398-79.675,79.675h-260.65c-3.606-42.276-37.399-76.068-79.675-79.675V235.019
		c55.661,18.785,113.551,29.927,172.5,33.175v43.498c0,4.143,3.358,7.5,7.5,7.5h60c4.142,0,7.5-3.357,7.5-7.5v-43.688
		c26.344-1.572,52.799-4.746,78.746-9.488c4.075-0.745,6.774-4.652,6.029-8.727c-0.745-4.075-4.654-6.77-8.727-6.029
		c-25.06,4.581-50.604,7.665-76.049,9.22v-31.287c0-4.143-3.358-7.5-7.5-7.5h-60c-4.142,0-7.5,3.357-7.5,7.5v31.475
		c-60.785-3.427-120.406-15.436-177.523-35.759c-0.095-0.033-0.188-0.07-0.285-0.101c-2.044-0.728-4.085-1.465-6.122-2.215V107.5
		C15,95.094,25.093,85,37.5,85h395c12.407,0,22.5,10.094,22.5,22.5v107.592c-24.712,9.087-50.25,16.702-75.987,22.657
		c-4.036,0.934-6.55,4.962-5.617,8.997s4.962,6.55,8.998,5.616c21.601-4.998,43.06-11.149,64.035-18.326V375.325z M213.929,289.191
		h45v15h-45V289.191z M258.929,274.191h-45v-45h45V274.191z"/>
	<circle cx="82.999" cy="122.977" r="7.5"/>
	<circle cx="52.999" cy="152.977" r="7.5"/>
</g>
<g>
</g>
<g>
</g>
<g>
</g>
<g>
</g>
<g>
</g>
<g>
</g>
<g>
</g>
<g>
</g>
<g>
</g>
<g>
</g>
<g>
</g>
<g>
</g>
<g>
</g>
<g>
</g>
<g>
</g>
</svg>
